<svg width="48" height="7" viewBox="0 0 48 7" fill="none" xmlns="http://www.w3.org/2000/svg">
<path fill-rule="evenodd" clip-rule="evenodd" d="M0.292877 4.53555C-0.0976257 4.92606 -0.0976257 5.55923 0.292877 5.94974C0.68338 6.34036 1.31656 6.34036 1.70712 5.94974L3.12131 4.53555L4.53549 5.94974C4.92606 6.34036 5.55923 6.34036 5.94974 5.94974C6.34024 5.55923 6.34024 4.92606 5.94974 4.53555L4.53549 3.12137L5.94974 1.70718C6.34024 1.31668 6.34024 0.683502 5.94974 0.292877C5.55923 -0.0976257 4.92606 -0.0976257 4.53549 0.292877L3.12131 1.70718L1.70712 0.292877C1.31656 -0.0976257 0.68338 -0.0976257 0.292877 0.292877C-0.0976257 0.683502 -0.0976257 1.31668 0.292877 1.70718L1.70712 3.12137L0.292877 4.53555ZM10.2929 4.53555C9.90237 4.92606 9.90237 5.55923 10.2929 5.94974C10.6834 6.34036 11.3166 6.34036 11.7071 5.94974L13.1213 4.53555L14.5355 5.94974C14.9261 6.34036 15.5592 6.34036 15.9497 5.94974C16.3402 5.55923 16.3402 4.92606 15.9497 4.53555L14.5355 3.12137L15.9497 1.70718C16.3402 1.31668 16.3402 0.683502 15.9497 0.292877C15.5592 -0.0976257 14.9261 -0.0976257 14.5355 0.292877L13.1213 1.70718L11.7071 0.292877C11.3166 -0.0976257 10.6834 -0.0976257 10.2929 0.292877C9.90237 0.683502 9.90237 1.31668 10.2929 1.70718L11.7071 3.12137L10.2929 4.53555ZM20.2929 5.94974C19.9024 5.55923 19.9024 4.92606 20.2929 4.53555L21.7071 3.12137L20.2929 1.70718C19.9024 1.31668 19.9024 0.683502 20.2929 0.292877C20.6834 -0.0976257 21.3166 -0.0976257 21.7071 0.292877L23.1213 1.70718L24.5355 0.292877C24.9261 -0.0976257 25.5592 -0.0976257 25.9497 0.292877C26.3402 0.683502 26.3402 1.31668 25.9497 1.70718L24.5355 3.12137L25.9497 4.53555C26.3402 4.92606 26.3402 5.55923 25.9497 5.94974C25.5592 6.34036 24.9261 6.34036 24.5355 5.94974L23.1213 4.53555L21.7071 5.94974C21.3166 6.34036 20.6834 6.34036 20.2929 5.94974ZM30.2929 4.53555C29.9024 4.92606 29.9024 5.55923 30.2929 5.94974C30.6834 6.34036 31.3166 6.34036 31.7071 5.94974L33.1213 4.53555L34.5355 5.94974C34.9261 6.34036 35.5592 6.34036 35.9497 5.94974C36.3402 5.55923 36.3402 4.92606 35.9497 4.53555L34.5355 3.12137L35.9497 1.70718C36.3402 1.31668 36.3402 0.683502 35.9497 0.292877C35.5592 -0.0976257 34.9261 -0.0976257 34.5355 0.292877L33.1213 1.70718L31.7071 0.292877C31.3166 -0.0976257 30.6834 -0.0976257 30.2929 0.292877C29.9024 0.683502 29.9024 1.31668 30.2929 1.70718L31.7071 3.12137L30.2929 4.53555ZM41.2929 5.94974C40.9024 5.55923 40.9024 4.92606 41.2929 4.53555L42.7071 3.12137L41.2929 1.70718C40.9024 1.31668 40.9024 0.683502 41.2929 0.292877C41.6834 -0.0976257 42.3166 -0.0976257 42.7071 0.292877L44.1213 1.70718L45.5355 0.292877C45.9261 -0.0976257 46.5592 -0.0976257 46.9497 0.292877C47.3402 0.683502 47.3402 1.31668 46.9497 1.70718L45.5355 3.12137L46.9497 4.53555C47.3402 4.92606 47.3402 5.55923 46.9497 5.94974C46.5592 6.34036 45.9261 6.34036 45.5355 5.94974L44.1213 4.53555L42.7071 5.94974C42.3166 6.34036 41.6834 6.34036 41.2929 5.94974Z" fill="#57984C"/>
</svg>
